<svg width="49" height="14" viewBox="0 0 49 14" fill="none" xmlns="http://www.w3.org/2000/svg">
<g clip-path="url(#clip0_17_18040)">
<path d="M30.3917 10.9372C27.5476 12.9217 23.4253 13.9804 19.8761 13.9804C14.8995 13.9804 10.4193 12.238 7.02984 9.34003C6.76354 9.11215 7.00214 8.80158 7.3217 8.97905C10.9796 10.9937 15.5024 12.2057 20.1743 12.2057C23.3252 12.2057 26.7913 11.5886 29.9784 10.308C30.4599 10.1144 30.8625 10.6065 30.3917 10.9372Z" fill="#FF9900"/>
<path d="M31.574 9.65676C31.2119 9.21712 29.1709 9.44904 28.2549 9.55189C27.9758 9.58416 27.9332 9.35426 28.1846 9.18889C29.8101 8.10593 32.4773 8.41852 32.7883 8.78152C33.0994 9.14654 32.7074 11.6775 31.1799 12.8855C30.9456 13.071 30.7219 12.9722 30.8263 12.7261C31.1693 11.9154 31.9383 10.0984 31.574 9.65676Z" fill="#FF9900"/>
<path d="M28.3195 1.54352V0.490811C28.3195 0.331493 28.4473 0.224609 28.6007 0.224609H33.5794C33.7392 0.224609 33.867 0.33351 33.867 0.490811V1.39227C33.8649 1.54352 33.7307 1.74115 33.4921 2.05374L30.9122 5.54058C31.8708 5.5184 32.8828 5.65351 33.752 6.11735C33.948 6.22222 34.0012 6.37548 34.0161 6.52674V7.65003C34.0161 7.80329 33.8372 7.98278 33.6497 7.89001C32.118 7.12972 30.0834 7.04704 28.3898 7.89808C28.2172 7.98681 28.0361 7.80934 28.0361 7.65608V6.58925C28.0361 6.41783 28.0383 6.12541 28.2193 5.86526L31.2083 1.8077H28.6071C28.4473 1.8077 28.3195 1.70082 28.3195 1.54352Z" fill="#F6F8F9"/>
<path d="M10.1573 8.11195H8.64263C8.49776 8.10187 8.38272 7.99902 8.37207 7.86793V0.50907C8.37207 0.361853 8.50202 0.244884 8.66393 0.244884H10.0764C10.2234 0.25093 10.3406 0.357818 10.3512 0.490919V1.45288H10.3789C10.7475 0.523186 11.4398 0.0895996 12.3729 0.0895996C13.321 0.0895996 13.9132 0.523186 14.3393 1.45288C14.7057 0.523186 15.5387 0.0895996 16.4313 0.0895996C17.0662 0.0895996 17.7607 0.337651 18.1846 0.894255C18.664 1.51338 18.566 2.41282 18.566 3.20134L18.5639 7.84575C18.5639 7.99297 18.4339 8.11195 18.272 8.11195H16.7594C16.6082 8.10187 16.4867 7.98692 16.4867 7.84575V3.94549C16.4867 3.63492 16.5166 2.86052 16.4441 2.56608C16.3312 2.072 15.9925 1.93284 15.5536 1.93284C15.1872 1.93284 14.8037 2.16476 14.6482 2.53583C14.4927 2.9069 14.5076 3.52804 14.5076 3.94549V7.84575C14.5076 7.99297 14.3776 8.11195 14.2157 8.11195H12.7032C12.5498 8.10187 12.4305 7.98692 12.4305 7.84575L12.4283 3.94549C12.4283 3.1247 12.5711 1.91671 11.4952 1.91671C10.4066 1.91671 10.4492 3.09445 10.4492 3.94549V7.84575C10.4492 7.99297 10.3192 8.11195 10.1573 8.11195Z" fill="#F6F8F9"/>
<path d="M38.1528 0.0895996C40.4003 0.0895996 41.6168 1.91671 41.6168 4.23993C41.6168 6.48449 40.2725 8.26522 38.1528 8.26522C35.9457 8.26522 34.7441 6.43811 34.7441 4.16128C34.7441 1.87033 35.9606 0.0895996 38.1528 0.0895996ZM38.1655 1.59203C37.0492 1.59203 36.9789 3.03194 36.9789 3.92936C36.9789 4.8288 36.964 6.74868 38.1528 6.74868C39.3266 6.74868 39.382 5.19987 39.382 4.25606C39.382 3.63492 39.3543 2.89279 39.1562 2.30391C38.9857 1.79168 38.647 1.59203 38.1655 1.59203Z" fill="#F6F8F9"/>
<path d="M44.5312 8.11195H43.0229C42.8716 8.10187 42.7502 7.98692 42.7502 7.84575L42.748 0.484869C42.7608 0.349751 42.8865 0.244884 43.0399 0.244884H44.4438C44.5759 0.25093 44.6846 0.335635 44.7144 0.450586V1.57589H44.7421C45.166 0.56957 45.7604 0.0895996 46.8064 0.0895996C47.486 0.0895996 48.1486 0.321518 48.5747 0.956772C48.9709 1.54564 48.9709 2.53583 48.9709 3.24772V7.88004C48.9539 8.0091 48.8282 8.11195 48.6791 8.11195H47.1601C47.0216 8.10187 46.9066 8.00507 46.8917 7.88004V3.88298C46.8917 3.07832 46.9897 1.90058 45.9436 1.90058C45.5751 1.90058 45.2363 2.13451 45.068 2.48945C44.855 2.93917 44.8273 3.38687 44.8273 3.88298V7.84575C44.8252 7.99297 44.6931 8.11195 44.5312 8.11195Z" fill="#F6F8F9"/>
<path d="M24.3499 4.59691V4.28634C23.2549 4.28634 22.0981 4.50817 22.0981 5.73028C22.0981 6.3494 22.4368 6.76887 23.0184 6.76887C23.4445 6.76887 23.8258 6.52082 24.0665 6.11748C24.3648 5.62138 24.3499 5.15553 24.3499 4.59691ZM25.8774 8.09181C25.7772 8.17651 25.6324 8.18256 25.5195 8.1261C25.0167 7.73083 24.9272 7.54731 24.6503 7.17019C23.8194 7.97283 23.2314 8.21281 22.1535 8.21281C20.8795 8.21281 19.8867 7.46866 19.8867 5.97833C19.8867 4.81471 20.5535 4.02215 21.5016 3.63495C22.3239 3.29211 23.4722 3.23162 24.3499 3.13683V2.9513C24.3499 2.61048 24.3776 2.20714 24.1667 1.91271C23.9813 1.64852 23.6277 1.53962 23.3166 1.53962C22.7393 1.53962 22.2238 1.81994 22.0981 2.40074C22.0725 2.52981 21.9724 2.65686 21.836 2.66291L20.3661 2.51368C20.2425 2.48746 20.1061 2.39268 20.1402 2.21319C20.479 0.527248 22.0874 0.019043 23.5276 0.019043C24.2647 0.019043 25.2276 0.204578 25.8092 0.732948C26.5463 1.38434 26.476 2.25352 26.476 3.19935V5.43383C26.476 6.10539 26.77 6.39982 27.047 6.76282C27.145 6.89189 27.1663 7.04717 27.0427 7.14397C26.7338 7.38799 26.1842 7.84175 25.8816 8.09585L25.8774 8.09181Z" fill="#F6F8F9"/>
<path d="M4.49247 4.59691V4.28634C3.39744 4.28634 2.24064 4.50817 2.24064 5.73028C2.24064 6.3494 2.57937 6.76887 3.16097 6.76887C3.58705 6.76887 3.96839 6.52082 4.20912 6.11748C4.50738 5.62138 4.49247 5.15553 4.49247 4.59691ZM6.01995 8.09181C5.91983 8.17651 5.77496 8.18256 5.66205 8.1261C5.15928 7.73083 5.0698 7.54731 4.79285 7.17019C3.962 7.97283 3.37401 8.21281 2.29603 8.21281C1.02206 8.21281 0.0292969 7.46866 0.0292969 5.97833C0.0292969 4.81471 0.696109 4.02215 1.64413 3.63495C2.46646 3.29211 3.61474 3.23162 4.49247 3.13683V2.9513C4.49247 2.61048 4.52016 2.20714 4.30925 1.91271C4.12391 1.64852 3.77026 1.53962 3.45922 1.53962C2.88189 1.53962 2.36633 1.81994 2.24064 2.40074C2.21508 2.52981 2.11495 2.65686 1.9786 2.66291L0.508635 2.51368C0.385072 2.48746 0.248727 2.39268 0.282813 2.21319C0.621545 0.527248 2.22999 0.019043 3.67013 0.019043C4.40725 0.019043 5.37018 0.204578 5.95178 0.732948C6.6889 1.38434 6.61859 2.25352 6.61859 3.19935V5.43383C6.61859 6.10539 6.91259 6.39982 7.18954 6.76282C7.28754 6.89189 7.30884 7.04717 7.18528 7.14397C6.87637 7.38799 6.32673 7.84175 6.02421 8.09585L6.01995 8.09181Z" fill="#F6F8F9"/>
</g>
<defs>
<clipPath id="clip0_17_18040">
<rect width="49" height="14" fill="white"/>
</clipPath>
</defs>
</svg>
