<svg width="14" height="9" viewBox="0 0 14 9" fill="none" xmlns="http://www.w3.org/2000/svg">
<path d="M3.7732 4.31463C4.39122 3.58546 5.21823 3.06365 6.14243 2.81975C7.06663 2.57586 8.04343 2.62164 8.94077 2.9509C9.8381 3.28017 10.6127 3.87704 11.1598 4.66081C11.7069 5.44459 12.0001 6.37746 11.9999 7.3333C11.9999 7.59851 12.1052 7.85287 12.2928 8.0404C12.4803 8.22794 12.7347 8.3333 12.9999 8.3333C13.2651 8.3333 13.5194 8.22794 13.707 8.0404C13.8945 7.85287 13.9999 7.59851 13.9999 7.3333C13.9999 3.6513 11.0152 0.66663 7.3332 0.66663C6.40096 0.665611 5.47892 0.860652 4.62695 1.23909C3.77497 1.61753 3.0121 2.17091 2.38787 2.8633L2.15653 1.5533C2.13606 1.4219 2.08959 1.29591 2.01984 1.1827C1.95008 1.06949 1.85845 0.971321 1.7503 0.893949C1.64215 0.816578 1.51965 0.761553 1.38998 0.732097C1.2603 0.70264 1.12605 0.699341 0.99509 0.722395C0.864126 0.745449 0.739075 0.794392 0.627255 0.86636C0.515435 0.938328 0.419092 1.03187 0.343863 1.14153C0.268634 1.25118 0.216031 1.37474 0.189131 1.50496C0.162231 1.63519 0.161575 1.76948 0.187201 1.89996L0.881868 5.83996C0.927868 6.10063 1.0752 6.3333 1.2932 6.4853C1.56187 6.6733 1.91587 6.7153 2.21653 6.61996L5.9792 5.95596C6.11059 5.93549 6.23658 5.88902 6.3498 5.81926C6.46301 5.74951 6.56118 5.65788 6.63855 5.54972C6.71592 5.44157 6.77094 5.31908 6.8004 5.1894C6.82986 5.05973 6.83316 4.92548 6.8101 4.79452C6.78705 4.66355 6.73811 4.5385 6.66614 4.42668C6.59417 4.31486 6.50062 4.21852 6.39097 4.14329C6.28132 4.06806 6.15776 4.01546 6.02753 3.98856C5.89731 3.96166 5.76302 3.961 5.63253 3.98663L3.77387 4.31396L3.7732 4.31463Z" fill="white" fill-opacity="0.65"/>
</svg>
