<svg width="16" height="16" viewBox="0 0 16 16" fill="none" xmlns="http://www.w3.org/2000/svg">
<g clip-path="url(#clip0_17_17773)">
<path d="M8.00049 1.83337C11.4062 1.83355 14.1665 4.59462 14.1665 8.00037C14.1663 11.406 11.4061 14.1662 8.00049 14.1664H2.6665C2.44561 14.1663 2.23384 14.0784 2.07764 13.9222C1.92146 13.766 1.8335 13.5543 1.8335 13.3334V8.00037C1.8335 4.59451 4.59463 1.83337 8.00049 1.83337ZM6.00049 8.83337C5.69107 8.83337 5.39409 8.95638 5.17529 9.17517C4.9565 9.39396 4.8335 9.69095 4.8335 10.0004C4.83358 10.3096 4.95668 10.6059 5.17529 10.8246C5.39409 11.0434 5.69107 11.1664 6.00049 11.1664H8.00049C8.30979 11.1663 8.60599 11.0433 8.82471 10.8246C9.04342 10.6059 9.16642 10.3097 9.1665 10.0004C9.1665 9.69095 9.0435 9.39396 8.82471 9.17517C8.60601 8.95656 8.30971 8.83346 8.00049 8.83337H6.00049ZM5.99951 6.16638C5.70219 6.16674 5.41591 6.28063 5.19971 6.48474C4.98349 6.68887 4.85385 6.96817 4.83643 7.26501C4.819 7.56186 4.91511 7.85437 5.10596 8.0824C5.29674 8.31034 5.56765 8.45638 5.86279 8.49158L5.87744 8.49353L5.89209 8.49451L5.97021 8.49939L5.98486 8.50037H10.0005C10.2978 8.50004 10.5841 8.38605 10.8003 8.18201C11.0165 7.97787 11.1471 7.69858 11.1646 7.40173C11.182 7.1049 11.0849 6.81237 10.894 6.58435C10.7032 6.35641 10.4324 6.21029 10.1372 6.17517L10.1226 6.17322L10.1079 6.17224L10.0298 6.16736L10.0151 6.16638H5.99951Z" fill="white" stroke="white"/>
</g>
<defs>
<clipPath id="clip0_17_17773">
<rect width="16" height="16" fill="white"/>
</clipPath>
</defs>
</svg>
