<svg width="35" height="14" viewBox="0 0 35 14" fill="none" xmlns="http://www.w3.org/2000/svg">
<g clip-path="url(#clip0_17_17966)">
<path d="M4.53447 3.34253C2.06747 3.34253 0.0117188 4.31178 0.0117188 7.23596C0.0117188 9.55255 1.39406 11.0114 4.59817 11.0114C8.36956 11.0114 8.61132 8.71074 8.61132 8.71074H6.7839C6.7839 8.71074 6.39209 9.94956 4.4867 9.94956C2.9348 9.94956 1.81862 8.97872 1.81862 7.61794H8.80242V6.76403C8.80242 5.41779 7.87958 3.34253 4.53447 3.34253ZM4.47077 4.43387C5.94801 4.43387 6.9551 5.27195 6.9551 6.52806H1.85904C1.85904 5.19455 3.17355 4.43387 4.47077 4.43387Z" fill="#E53238"/>
<path d="M8.80123 0.510742V9.54269C8.80123 10.0554 8.76172 10.7752 8.76172 10.7752H10.5047C10.5047 10.7752 10.5672 10.2582 10.5672 9.78572C10.5672 9.78572 11.4284 11.0333 13.7699 11.0333C16.2356 11.0333 17.9104 9.44803 17.9104 7.17676C17.9104 5.06384 16.372 3.36445 13.7739 3.36445C11.3409 3.36445 10.5849 4.58115 10.5849 4.58115V0.510742H8.80123ZM13.324 4.4816C14.9984 4.4816 16.0631 5.63242 16.0631 7.17676C16.0631 8.8328 14.8334 9.91618 13.3359 9.91618C11.5488 9.91618 10.5849 8.62399 10.5849 7.19151C10.5849 5.85673 11.4499 4.4816 13.324 4.4816Z" fill="#0064D2"/>
<path d="M22.2415 3.34265C18.5301 3.34265 18.2921 5.2246 18.2921 5.52533H20.1394C20.1394 5.52533 20.2363 4.42662 22.1141 4.42662C23.3344 4.42662 24.2799 4.94386 24.2799 5.93827V6.29222H22.1141C19.2388 6.29222 17.7188 7.07117 17.7188 8.65187C17.7188 10.2075 19.1232 11.0539 21.0212 11.0539C23.6079 11.0539 24.4412 9.73031 24.4412 9.73031C24.4412 10.2568 24.485 10.7756 24.485 10.7756H26.1272C26.1272 10.7756 26.0635 10.1325 26.0635 9.72109V6.16502C26.0635 3.83335 24.0327 3.34265 22.2415 3.34265ZM24.2799 7.35406V7.82599C24.2799 8.44152 23.8698 9.97181 21.4552 9.97181C20.133 9.97181 19.5661 9.36071 19.5661 8.65187C19.5661 7.36237 21.4752 7.35406 24.2799 7.35406Z" fill="#F5AF02"/>
<path d="M25.0693 3.6377H27.1476L30.1301 9.1713L33.1059 3.6377H34.9885L29.5682 13.4892H27.5935L29.1576 10.743L25.0693 3.6377Z" fill="#86B817"/>
</g>
<defs>
<clipPath id="clip0_17_17966">
<rect width="35" height="13" fill="white" transform="translate(0 0.5)"/>
</clipPath>
</defs>
</svg>
