<svg width="22" height="23" viewBox="0 0 22 23" fill="none" xmlns="http://www.w3.org/2000/svg">
<path fill-rule="evenodd" clip-rule="evenodd" d="M4 1.18367C4.43748 0.746051 5.03088 0.500132 5.64967 0.5H16.3503C16.9691 0.500132 17.5625 0.746051 18 1.18367L20.8163 4C21.2539 4.43748 21.4999 5.03088 21.5 5.64967V19.1667C21.5 20.0949 21.1313 20.9852 20.4749 21.6415C19.8185 22.2979 18.9283 22.6667 18 22.6667H4C3.07174 22.6667 2.1815 22.2979 1.52513 21.6415C0.868749 20.9852 0.5 20.0949 0.5 19.1667V5.64967C0.500132 5.03088 0.746051 4.43748 1.18367 4L4 1.18367ZM16.3503 2.83333H5.64967L3.31633 5.16667H18.6837L16.3503 2.83333ZM8.66667 11C8.66667 10.6906 8.54375 10.3938 8.32496 10.175C8.10616 9.95625 7.80942 9.83333 7.5 9.83333C7.19058 9.83333 6.89383 9.95625 6.67504 10.175C6.45625 10.3938 6.33333 10.6906 6.33333 11C6.33333 12.2377 6.825 13.4247 7.70017 14.2998C8.57534 15.175 9.76232 15.6667 11 15.6667C12.2377 15.6667 13.4247 15.175 14.2998 14.2998C15.175 13.4247 15.6667 12.2377 15.6667 11C15.6667 10.6906 15.5437 10.3938 15.325 10.175C15.1062 9.95625 14.8094 9.83333 14.5 9.83333C14.1906 9.83333 13.8938 9.95625 13.675 10.175C13.4562 10.3938 13.3333 10.6906 13.3333 11C13.3333 11.6188 13.0875 12.2123 12.6499 12.6499C12.2123 13.0875 11.6188 13.3333 11 13.3333C10.3812 13.3333 9.78767 13.0875 9.35008 12.6499C8.9125 12.2123 8.66667 11.6188 8.66667 11Z" fill="url(#paint0_linear_106_191)"/>
<defs>
<linearGradient id="paint0_linear_106_191" x1="11" y1="0.5" x2="11" y2="22.6667" gradientUnits="userSpaceOnUse">
<stop stop-color="#C521FF"/>
<stop offset="0.5" stop-color="#FF2164"/>
<stop offset="1" stop-color="#FF9B21"/>
</linearGradient>
</defs>
</svg>
