<svg width="21" height="24" viewBox="0 0 21 24" fill="none" xmlns="http://www.w3.org/2000/svg">
<path d="M10.5002 0.333313C11.5934 0.333313 12.6585 0.459313 13.6805 0.696146C13.8318 0.728747 13.9751 0.79112 14.1021 0.879632C14.229 0.968145 14.3371 1.08103 14.42 1.21171C14.5029 1.34239 14.5589 1.48826 14.5849 1.64082C14.6109 1.79338 14.6062 1.94958 14.5713 2.10033C14.5363 2.25108 14.4717 2.39337 14.3812 2.5189C14.2907 2.64443 14.1761 2.75071 14.0441 2.83153C13.9121 2.91236 13.7654 2.96612 13.6125 2.98969C13.4595 3.01326 13.3034 3.00616 13.1532 2.96881C12.5779 2.83515 11.9933 2.74545 11.4044 2.70048L10.9144 2.67365L11.311 2.69698C12.9987 2.82505 14.6299 3.36157 16.064 4.26031L16.3825 4.46798L17.0895 3.76098C17.299 3.54952 17.5814 3.42611 17.8789 3.41602C18.1763 3.40592 18.4664 3.50991 18.6897 3.70669C18.913 3.90347 19.0527 4.17816 19.0801 4.47454C19.1075 4.77092 19.0206 5.06657 18.8372 5.30098L18.7404 5.41065L18.1629 5.98815C19.7956 7.73083 20.7856 9.97803 20.9694 12.359C21.1532 14.74 20.5198 17.1125 19.1739 19.0851C17.8279 21.0577 15.8498 22.5126 13.5657 23.2098C11.2817 23.9069 8.82824 23.8046 6.61015 22.9198C4.39205 22.035 2.54182 20.4206 1.3647 18.3428C0.187589 16.265 -0.246088 13.848 0.135222 11.4906C0.516531 9.13315 1.69004 6.97613 3.46216 5.37537C5.23428 3.77461 7.49912 2.82574 9.88305 2.68531L10.1152 2.67365L10.0452 2.67481C9.44205 2.69815 8.85172 2.76815 8.27655 2.87781L7.84722 2.96881C7.54785 3.03332 7.23512 2.97754 6.97652 2.81351C6.71793 2.64947 6.53419 2.39034 6.46497 2.09203C6.39575 1.79371 6.4466 1.48015 6.60654 1.219C6.76649 0.957847 7.0227 0.770054 7.31988 0.696146C8.34188 0.459313 9.40822 0.333313 10.5002 0.333313ZM10.5002 7.33331C10.1908 7.33331 9.89405 7.45623 9.67526 7.67502C9.45647 7.89381 9.33355 8.19056 9.33355 8.49998V13.1666C9.33355 13.4761 9.45647 13.7728 9.67526 13.9916C9.89405 14.2104 10.1908 14.3333 10.5002 14.3333C10.8096 14.3333 11.1064 14.2104 11.3252 13.9916C11.544 13.7728 11.6669 13.4761 11.6669 13.1666V8.49998C11.6669 8.19056 11.544 7.89381 11.3252 7.67502C11.1064 7.45623 10.8096 7.33331 10.5002 7.33331Z" fill="url(#paint0_linear_106_49)"/>
<defs>
<linearGradient id="paint0_linear_106_49" x1="10.5005" y1="0.333313" x2="10.5005" y2="23.6671" gradientUnits="userSpaceOnUse">
<stop stop-color="#C521FF"/>
<stop offset="0.5" stop-color="#FF2164"/>
<stop offset="1" stop-color="#FF9B21"/>
</linearGradient>
</defs>
</svg>
