<svg width="33" height="32" viewBox="0 0 33 32" fill="none" xmlns="http://www.w3.org/2000/svg">
<path fill-rule="evenodd" clip-rule="evenodd" d="M18.5334 25.832C16.475 26.1949 14.3547 25.9041 12.4701 25.0004C10.5854 24.0967 9.03114 22.6255 8.02536 20.7933C7.76735 20.3337 7.33835 19.9946 6.83163 19.8496C6.3249 19.7046 5.78142 19.7654 5.31934 20.019C4.85726 20.2725 4.51393 20.6982 4.36401 21.2035C4.21408 21.7088 4.26967 22.2528 4.5187 22.7173C7.32136 27.8307 13.1587 30.8413 19.228 29.7707C26.8414 28.4293 31.9267 21.168 30.584 13.5533C29.24 5.93866 21.98 0.853327 14.3654 2.19733C11.3485 2.72911 8.58921 4.23545 6.51038 6.48551C4.43155 8.73557 3.14786 11.6052 2.85603 14.6547C2.6907 16.4 4.54403 17.5333 6.01336 16.72L9.77336 14.6373C11.836 13.496 10.796 10.3453 8.4587 10.656L8.3227 10.6747C9.2073 9.26273 10.4307 8.0942 11.8817 7.27525C13.3327 6.4563 14.9653 6.01288 16.6313 5.98529C18.2972 5.95769 19.9436 6.34679 21.4209 7.11724C22.8983 7.88768 24.1597 9.01505 25.0906 10.3969C26.0215 11.7788 26.5923 13.3713 26.7513 15.0299C26.9102 16.6885 26.6522 18.3604 26.0008 19.894C25.3493 21.4275 24.325 22.7739 23.0209 23.8109C21.7168 24.8479 20.1742 25.5427 18.5334 25.832Z" fill="url(#paint0_linear_17_13823)"/>
<defs>
<linearGradient id="paint0_linear_17_13823" x1="16.8224" y1="1.98193" x2="16.8224" y2="29.986" gradientUnits="userSpaceOnUse">
<stop stop-color="#C521FF"/>
<stop offset="0.5" stop-color="#FF2164"/>
<stop offset="1" stop-color="#FF9B21"/>
</linearGradient>
</defs>
</svg>
