<svg width="22" height="23" viewBox="0 0 22 23" fill="none" xmlns="http://www.w3.org/2000/svg">
<path d="M21.5 15.8335V17.4167C21.5 18.3663 21.0555 19.1783 20.4383 19.8165C19.8282 20.4488 18.9998 20.9645 18.0677 21.3728C16.1987 22.1895 13.6997 22.6667 11 22.6667C8.30033 22.6667 5.80133 22.1907 3.93233 21.3728C3.00017 20.9645 2.17183 20.4488 1.56167 19.8165C0.995833 19.2332 0.575833 18.5005 0.509333 17.6512L0.5 17.4167V15.8335C1.0425 16.1415 1.62233 16.4145 2.243 16.6443C4.61133 17.5205 7.70883 18.0093 11 18.0093C14.2912 18.0093 17.3887 17.5205 19.757 16.6443C20.2225 16.4717 20.6647 16.2757 21.0858 16.0575L21.5 15.8335ZM0.5 9.41683C1.0425 9.72483 1.62233 9.99783 2.243 10.2277C4.61133 11.1038 7.70883 11.5927 11 11.5927C14.2912 11.5927 17.3887 11.1038 19.757 10.2277C20.3777 9.99783 20.9575 9.726 21.5 9.41683V13.0393C20.7253 13.6373 19.8647 14.1148 18.9473 14.4557C16.8998 15.214 14.0893 15.6772 11 15.6772C7.91183 15.6772 5.10133 15.214 3.05267 14.4557C2.1353 14.1148 1.2747 13.6373 0.5 13.0393V9.41683ZM11 0.5C13.6997 0.5 16.1987 0.976 18.0677 1.79383C18.9998 2.20217 19.8282 2.71783 20.4383 3.35017C21.0042 3.9335 21.4242 4.66617 21.4907 5.5155L21.5 5.75V6.62267C20.7253 7.22067 19.8647 7.69817 18.9473 8.039C16.8998 8.79733 14.0893 9.2605 11 9.2605C7.91183 9.2605 5.10133 8.79733 3.05267 8.039C2.23717 7.73683 1.501 7.339 0.830167 6.86533L0.5 6.62267V5.75C0.5 4.80033 0.9445 3.98833 1.56167 3.35017C2.17183 2.71783 3.00017 2.20217 3.93233 1.79383C5.80133 0.977167 8.30033 0.5 11 0.5Z" fill="url(#paint0_linear_106_566)"/>
<defs>
<linearGradient id="paint0_linear_106_566" x1="11" y1="0.5" x2="11" y2="22.6667" gradientUnits="userSpaceOnUse">
<stop stop-color="#C521FF"/>
<stop offset="0.5" stop-color="#FF2164"/>
<stop offset="1" stop-color="#FF9B21"/>
</linearGradient>
</defs>
</svg>
