<svg width="25" height="23" viewBox="0 0 25 23" fill="none" xmlns="http://www.w3.org/2000/svg">
<path fill-rule="evenodd" clip-rule="evenodd" d="M22.999 4.99632C23.0375 3.26965 22.1578 1.75998 20.8605 1.00398C19.7475 0.355317 18.3697 0.295817 17.1668 1.04715C15.9652 0.295817 14.5862 0.355317 13.4732 1.00398C12.1758 1.75998 11.2962 3.26965 11.3347 4.99632C11.3848 7.22348 13.1092 9.03765 15.6327 10.5368C16.1017 10.8145 16.6022 11.1295 17.1668 11.1295C17.7315 11.1295 18.232 10.8145 18.701 10.5368C21.2245 9.03765 22.9488 7.22348 22.999 4.99632ZM8.28733 11.3827L5.96566 12.8328C5.52988 12.4057 4.94371 12.1668 4.3335 12.1678H3.16683C2.54799 12.1678 1.9545 12.4136 1.51691 12.8512C1.07933 13.2888 0.833496 13.8823 0.833496 14.5012V19.1678C0.833496 19.7867 1.07933 20.3801 1.51691 20.8177C1.9545 21.2553 2.54799 21.5011 3.16683 21.5011H4.3335C4.74307 21.5011 5.14543 21.3933 5.50013 21.1885C5.85483 20.9837 6.14937 20.6892 6.35416 20.3345H7.28283C7.46381 20.3343 7.64235 20.3763 7.80433 20.457L10.546 21.8278C11.7065 22.4077 13.0271 22.5843 14.2992 22.3295L18.0442 21.5816C18.5563 21.479 19.0393 21.2631 19.4558 20.9493L23.0387 18.2625C23.3888 17.9999 23.6731 17.6595 23.8689 17.268C24.0647 16.8766 24.1667 16.445 24.1668 16.0073V15.942C24.1668 13.877 21.9933 12.533 20.1453 13.457C19.3403 13.8595 18.5972 14.4778 17.8493 14.9772C18.281 13.6787 17.5938 12.2378 16.2277 11.8972L11.8923 10.8122C11.2839 10.6601 10.6511 10.6323 10.0317 10.7303C9.41235 10.8284 8.81907 11.0502 8.28733 11.3827Z" fill="url(#paint0_linear_106_972)"/>
<defs>
<linearGradient id="paint0_linear_106_972" x1="12.5002" y1="0.500549" x2="12.5002" y2="22.4431" gradientUnits="userSpaceOnUse">
<stop stop-color="#C521FF"/>
<stop offset="0.5" stop-color="#FF2164"/>
<stop offset="1" stop-color="#FF9B21"/>
</linearGradient>
</defs>
</svg>
